# xmcd CD database file
#
# Track frame offsets:
#	150
#	33163
#	79904
#	144331
#	178088
#
# Disc length: 2710 seconds
#
# Revision: 0
# Processed by: cddbd v1.5.1PL0 Copyright (c) Steve Scherf et al.
# Submitted via: CDex 1.51
#
DISCID=380a9405
DTITLE=Roy Haynes Trio - Live at the Barbican
DYEAR=1900
DGENRE=Jazz
TTITLE0=I Hear a Rhapsody
TTITLE1=Bright Mississippi
TTITLE2=It's Easy to Remember
TTITLE3=Green Chimneys
TTITLE4=Summer Night
EXTD=
EXTT0=
EXTT1=
EXTT2=
EXTT3=
EXTT4=
PLAYORDER=
